<svg width="47" height="32" viewBox="0 0 47 32" fill="none" xmlns="http://www.w3.org/2000/svg">
<path d="M46.5622 15.3214C41.6944 6.32251 33.1577 0.876953 23.711 0.876953C14.2644 0.876953 5.71326 6.32251 0.888819 15.3214L0.484375 16.0003L0.859931 16.6936C5.72771 25.6925 14.2644 31.1381 23.711 31.1381C33.1577 31.1381 41.7088 25.7647 46.5622 16.6936L46.9377 16.0003L46.5622 15.3214ZM23.711 28.177C15.5788 28.177 8.11104 23.6414 3.77771 16.0003C8.11104 8.35917 15.5788 3.82362 23.711 3.82362C31.8433 3.82362 39.2244 8.37362 43.6299 16.0003C39.2244 23.6414 31.8288 28.177 23.711 28.177V28.177Z" fill="white"/>
<path d="M24.1296 25.9525C29.6021 25.9525 34.0385 21.5162 34.0385 16.0437C34.0385 10.5711 29.6021 6.13477 24.1296 6.13477C18.6571 6.13477 14.2207 10.5711 14.2207 16.0437C14.2207 21.5162 18.6571 25.9525 24.1296 25.9525Z" fill="white"/>
</svg>
