<svg width="47" height="40" viewBox="0 0 47 40" fill="none" xmlns="http://www.w3.org/2000/svg">
<path d="M23.5347 10.1348C22.3657 10.1361 21.2063 10.3465 20.1113 10.7559L32.8224 23.467C33.2373 22.3585 33.4477 21.1839 33.4435 20.0003C33.4321 17.3798 32.3831 14.8706 30.526 13.0217C28.669 11.1728 26.1552 10.1347 23.5347 10.1348V10.1348Z" fill="white"/>
<path d="M46.5304 19.3214C41.6626 10.3225 33.1259 4.87695 23.6792 4.87695C21.1072 4.88299 18.5524 5.29741 16.1104 6.10473L18.4359 8.44473C20.1488 8.00205 21.9101 7.77401 23.6792 7.76584C31.8115 7.76584 39.207 12.3014 43.6126 19.9425C41.9965 22.7774 39.854 25.2777 37.3004 27.3092L39.3515 29.3603C42.3069 26.976 44.7614 24.0306 46.5737 20.6936L46.9492 20.0003L46.5304 19.3214Z" fill="white"/>
<path d="M4.03417 2.34851L10.4764 8.79073C6.40438 11.4126 3.07636 15.0391 0.813056 19.3207L0.4375 19.9996L0.813056 20.693C5.68083 29.6918 14.2175 35.1374 23.6642 35.1374C27.3513 35.1367 30.9906 34.3021 34.3097 32.6963L41.5319 39.9185L44.0597 37.7518L6.50417 0.196289L4.03417 2.34851ZM16.0231 14.3374C14.6717 16.2432 14.0383 18.5657 14.235 20.8937C14.4317 23.2217 15.4459 25.405 17.0979 27.057C18.7499 28.709 20.9332 29.7232 23.2612 29.9199C25.5892 30.1166 27.9117 29.4832 29.8175 28.1318L32.1286 30.443C29.4532 31.5866 26.5738 32.1762 23.6642 32.1763C15.5319 32.1763 8.13639 27.6407 3.73083 19.9996C5.84508 16.2559 8.88999 13.1215 12.5708 10.8996L16.0231 14.3374Z" fill="white"/>
</svg>
