<svg width="191" height="250" viewBox="0 0 191 250" fill="none" xmlns="http://www.w3.org/2000/svg">
<path d="M122.28 243.052C122.842 243.059 123.403 243.067 123.972 243.067C124.541 243.067 125.102 243.059 125.664 243.052C155.421 242.375 176.989 223.782 171.499 204.275L158.112 156.686L154.729 144.645L94.7529 145.667L91.1082 157.447L76.76 203.813C70.6856 223.429 92.2539 242.375 122.28 243.052Z" fill="#252331"/>
<path opacity="0.2" d="M91.1082 157.447C101.335 163.293 112.935 166.304 124.714 166.17C136.492 166.036 148.022 162.762 158.112 156.686L154.729 144.645L94.7529 145.667L91.1082 157.447Z" fill="black"/>
<path d="M95.7886 205.402C93.9918 195.568 86.6378 180.992 64.2026 162.31C25.0756 129.726 51.6246 109.854 52.7725 109.025C55.1805 107.284 55.0244 105.097 52.3932 104.139C50.8551 103.699 49.2408 103.593 47.6583 103.827C46.0758 104.062 44.5618 104.632 43.2178 105.5C41.7831 106.502 8.61435 130.451 52.7665 167.215C92.5015 200.307 81.959 218.93 81.841 219.108C80.5424 221.086 82.2186 222.89 85.5882 223.142C88.9579 223.395 92.7443 221.998 94.0463 220.022C94.3203 219.604 97.4628 214.558 95.7886 205.402Z" fill="#252331"/>
<path d="M151.653 249.987C152.562 249.987 153.462 249.808 154.302 249.461C155.141 249.113 155.904 248.603 156.547 247.961C157.189 247.318 157.699 246.555 158.047 245.715C158.395 244.876 158.574 243.976 158.574 243.067V213.079C158.571 211.245 157.841 209.487 156.544 208.191C155.246 206.895 153.487 206.167 151.653 206.167C149.819 206.167 148.06 206.895 146.763 208.191C145.465 209.487 144.735 211.245 144.733 213.079V243.067C144.733 243.976 144.912 244.876 145.26 245.715C145.608 246.555 146.117 247.318 146.76 247.961C147.403 248.603 148.165 249.113 149.005 249.461C149.845 249.808 150.745 249.987 151.653 249.987V249.987Z" fill="#252331"/>
<path d="M139.634 171.35C140.013 172.176 140.552 172.918 141.219 173.536C141.886 174.153 142.668 174.633 143.52 174.948C144.373 175.264 145.279 175.408 146.187 175.373C147.095 175.338 147.987 175.124 148.813 174.744L176.056 162.21C176.882 161.831 177.626 161.293 178.245 160.626C178.863 159.959 179.344 159.177 179.66 158.324C179.975 157.471 180.12 156.564 180.085 155.656C180.051 154.747 179.837 153.854 179.457 153.028C179.077 152.202 178.538 151.459 177.87 150.841C177.203 150.223 176.42 149.743 175.567 149.428C174.714 149.113 173.807 148.97 172.898 149.005C171.989 149.041 171.097 149.256 170.271 149.637L143.028 162.171C142.202 162.551 141.46 163.089 140.842 163.756C140.225 164.423 139.745 165.205 139.43 166.057C139.114 166.91 138.97 167.816 139.005 168.724C139.04 169.632 139.254 170.524 139.634 171.35V171.35Z" fill="#252331"/>
<path d="M185.457 195.35C185.077 196.176 184.538 196.918 183.871 197.536C183.205 198.153 182.423 198.633 181.57 198.948C180.718 199.264 179.812 199.408 178.904 199.373C177.995 199.338 177.103 199.124 176.277 198.744L149.034 186.21C148.208 185.831 147.464 185.293 146.846 184.626C146.228 183.959 145.747 183.177 145.431 182.324C145.115 181.471 144.97 180.564 145.005 179.656C145.04 178.747 145.253 177.854 145.633 177.028C146.014 176.202 146.553 175.459 147.22 174.841C147.888 174.223 148.67 173.743 149.524 173.428C150.377 173.113 151.284 172.97 152.192 173.005C153.101 173.041 153.994 173.256 154.819 173.637L182.062 186.171C182.888 186.551 183.631 187.089 184.248 187.756C184.866 188.423 185.346 189.205 185.661 190.057C185.976 190.91 186.12 191.816 186.085 192.724C186.05 193.632 185.837 194.524 185.457 195.35Z" fill="#252331"/>
<path d="M96.2909 249.987C95.3821 249.987 94.4822 249.808 93.6425 249.461C92.8029 249.113 92.04 248.603 91.3974 247.961C90.7548 247.318 90.245 246.555 89.8973 245.715C89.5495 244.876 89.3705 243.976 89.3705 243.067V213.079C89.3727 211.245 90.1028 209.487 91.4004 208.191C92.698 206.895 94.4569 206.167 96.2909 206.167C98.1248 206.167 99.8838 206.895 101.181 208.191C102.479 209.487 103.209 211.245 103.211 213.079V243.067C103.211 243.976 103.032 244.876 102.684 245.715C102.337 246.555 101.827 247.318 101.184 247.961C100.542 248.603 99.7788 249.113 98.9392 249.461C98.0996 249.808 97.1997 249.987 96.2909 249.987V249.987Z" fill="#252331"/>
<path d="M179.339 53.9104C179.738 52.798 179.842 51.6012 179.641 50.4367L175.874 28.2797L172.108 6.1227C171.905 4.92638 171.39 3.80465 170.616 2.87029C169.841 1.93592 168.835 1.22184 167.697 0.799793C166.559 0.377745 165.331 0.262602 164.134 0.465961C162.938 0.669319 161.816 1.18401 160.882 1.95829L143.577 16.2986L133.534 24.6207C126.547 23.5945 119.44 23.7017 112.487 24.9381L102.061 16.2985L84.7554 1.95826C83.821 1.18398 82.6993 0.66929 81.503 0.46593C80.3066 0.26257 79.0779 0.377699 77.9401 0.799747C76.8024 1.22179 75.7958 1.93589 75.0215 2.87026C74.2472 3.80463 73.7326 4.92634 73.5292 6.12267L69.7628 28.2797L65.9964 50.4367C65.8302 51.3841 65.8666 52.3559 66.1034 53.2881C66.3401 54.2204 66.7718 55.0918 67.3699 55.8451C61.2531 65.9596 57.9588 77.5286 57.8298 89.3481C57.7008 101.168 60.7419 112.806 66.6364 123.051C72.531 133.297 81.0638 141.776 91.3467 147.605C101.63 153.434 113.287 156.401 125.105 156.197C136.924 155.993 148.472 152.625 158.547 146.444C168.622 140.263 176.857 131.494 182.394 121.051C187.931 110.608 190.568 98.8719 190.031 87.0639C189.494 75.2559 185.802 63.8076 179.339 53.9104H179.339Z" fill="#252331"/>
<path d="M160.444 11.8299L139.459 29.2197L139.458 29.2205C138.996 29.6038 138.642 30.1021 138.433 30.6653C138.225 31.2285 138.168 31.8368 138.268 32.429C138.369 33.0212 138.624 33.5765 139.007 34.039C139.39 34.5016 139.889 34.855 140.452 35.064L166.005 44.5434C166.568 44.7524 167.177 44.8094 167.769 44.7087C168.361 44.6081 168.917 44.3533 169.379 43.97C169.842 43.5866 170.195 43.0883 170.404 42.525C170.613 41.9617 170.67 41.3534 170.57 40.7611L166.002 13.8915C165.905 13.2979 165.651 12.7409 165.267 12.2777C164.884 11.8146 164.383 11.462 163.818 11.2562C163.434 11.1125 163.027 11.0387 162.616 11.0381C161.822 11.0396 161.053 11.3198 160.444 11.8299V11.8299Z" fill="#E6E6E6"/>
<path d="M81.8193 11.2562C81.2541 11.462 80.7538 11.8146 80.3699 12.2777C79.986 12.7409 79.7323 13.2979 79.635 13.8915L75.0676 40.7611C74.9669 41.3534 75.024 41.9617 75.233 42.525C75.4419 43.0883 75.7955 43.5866 76.2581 43.97C76.7207 44.3533 77.2761 44.6081 77.8684 44.7087C78.4607 44.8094 79.0691 44.7524 79.6323 44.5434L105.186 35.064C105.749 34.855 106.247 34.5015 106.63 34.039C107.014 33.5765 107.268 33.0212 107.369 32.429C107.47 31.8368 107.413 31.2285 107.204 30.6653C106.995 30.1021 106.642 29.6038 106.179 29.2205L85.1932 11.8299C84.5842 11.3198 83.8155 11.0396 83.0211 11.0381C82.6107 11.0387 82.2038 11.1125 81.8193 11.2562Z" fill="#E6E6E6"/>
<path d="M123.972 108.505C129.068 108.505 133.199 104.374 133.199 99.2779C133.199 94.1819 129.068 90.0508 123.972 90.0508C118.876 90.0508 114.745 94.1819 114.745 99.2779C114.745 104.374 118.876 108.505 123.972 108.505Z" fill="#E6E6E6"/>
<path d="M123.972 96.971C127.369 96.971 130.123 95.9382 130.123 94.6642C130.123 93.3902 127.369 92.3574 123.972 92.3574C120.575 92.3574 117.821 93.3902 117.821 94.6642C117.821 95.9382 120.575 96.971 123.972 96.971Z" fill="#252331"/>
<path d="M124.357 119.271C123.801 119.271 123.251 119.161 122.738 118.949C122.225 118.736 121.759 118.425 121.366 118.032C120.973 117.639 120.662 117.173 120.449 116.66C120.237 116.147 120.127 115.597 120.127 115.041V104.661H128.586V115.041C128.586 115.597 128.476 116.147 128.264 116.66C128.051 117.173 127.74 117.639 127.347 118.032C126.954 118.425 126.488 118.736 125.975 118.949C125.462 119.161 124.912 119.271 124.357 119.271V119.271Z" fill="#FF6584"/>
<path d="M123.459 0C123.902 0.91976 124.333 1.84947 124.738 2.79819C129.51 13.9273 131.119 26.1572 129.389 38.142C128.523 36.8859 127.613 35.5773 126.688 34.2543C128.67 22.7519 127.555 10.9294 123.459 0V0Z" fill="#252331"/>
<path d="M116.538 8.45801C116.982 9.37778 117.413 10.3075 117.818 11.2562C122.59 22.3853 124.199 34.6153 122.468 46.6001C121.603 45.344 120.693 44.0353 119.767 42.7123C121.749 31.21 120.635 19.3874 116.538 8.45801V8.45801Z" fill="#252331"/>
<path d="M96.0118 174.322L96.9867 161.924L97.9615 149.525C98.0142 148.856 98.2421 148.212 98.6224 147.659C99.0027 147.105 99.522 146.662 100.128 146.373C100.734 146.084 101.406 145.959 102.075 146.012C102.744 146.064 103.388 146.292 103.942 146.673L114.191 153.716L121.676 158.859C122.154 158.299 122.748 157.849 123.417 157.541C124.086 157.233 124.814 157.073 125.55 157.073C126.287 157.073 127.015 157.233 127.684 157.541C128.352 157.849 128.947 158.299 129.425 158.859L136.909 153.716L147.159 146.673C147.713 146.292 148.356 146.064 149.026 146.012C149.695 145.959 150.367 146.084 150.973 146.373C151.579 146.662 152.098 147.105 152.478 147.659C152.859 148.212 153.086 148.856 153.139 149.525L154.114 161.924L155.089 174.322C155.142 174.991 155.017 175.662 154.728 176.269C154.439 176.875 153.995 177.394 153.442 177.774C152.888 178.154 152.245 178.382 151.575 178.435C150.906 178.488 150.234 178.363 149.628 178.074L138.404 172.719L129.181 168.319C128.707 168.8 128.141 169.182 127.518 169.443C126.895 169.703 126.226 169.837 125.55 169.837C124.875 169.837 124.206 169.703 123.583 169.443C122.959 169.182 122.394 168.8 121.919 168.319L112.697 172.719L101.472 178.074C100.866 178.363 100.195 178.488 99.5254 178.435C98.856 178.382 98.2122 178.154 97.6588 177.774C97.1054 177.394 96.6619 176.875 96.3727 176.269C96.0836 175.662 95.9591 174.991 96.0118 174.322V174.322Z" fill="#FF6804"/>
<path d="M133.968 89.2824C133.968 90.5564 135.001 89.2824 136.275 89.2824C137.549 89.2824 138.582 90.5564 138.582 89.2824C138.58 88.6715 138.337 88.086 137.904 87.6544C137.472 87.2228 136.886 86.9805 136.275 86.9805C135.664 86.9805 135.078 87.2228 134.645 87.6544C134.213 88.086 133.969 88.6715 133.968 89.2824V89.2824Z" fill="#E6E6E6"/>
<path d="M113.976 89.2824C113.976 90.5564 112.943 89.2824 111.669 89.2824C110.395 89.2824 109.362 90.5564 109.362 89.2824C109.364 88.6715 109.607 88.086 110.04 87.6544C110.472 87.2228 111.058 86.9805 111.669 86.9805C112.28 86.9805 112.866 87.2228 113.299 87.6544C113.731 88.086 113.975 88.6715 113.976 89.2824V89.2824Z" fill="#E6E6E6"/>
</svg>
