<svg width="194" height="251" viewBox="0 0 194 251" fill="none" xmlns="http://www.w3.org/2000/svg">
<path d="M68.4451 243.431C67.8837 243.439 67.3224 243.447 66.7534 243.447C66.1844 243.447 65.6231 243.439 65.0618 243.431C35.3044 242.755 13.7361 224.162 19.2262 204.655L32.6132 157.066L35.9965 145.024L95.9726 146.047L99.6173 157.827L113.965 204.193C120.04 223.808 98.4716 242.755 68.4451 243.431Z" fill="#252331"/>
<path opacity="0.2" d="M99.6172 157.827C89.3909 163.673 77.7902 166.684 66.0118 166.55C54.2334 166.416 42.704 163.142 32.6132 157.066L35.9964 145.024L95.9726 146.047L99.6172 157.827Z" fill="black"/>
<path d="M82.0572 183.216C89.129 176.149 103.468 168.344 132.546 165.739C183.262 161.194 172.728 129.749 172.256 128.414C171.265 125.613 172.638 123.902 175.347 124.611C176.862 125.124 178.25 125.955 179.418 127.048C180.586 128.141 181.507 129.471 182.119 130.949C182.729 132.59 196.388 171.153 139.163 176.278C87.6592 180.894 85.7373 202.209 85.7335 202.422C85.6766 204.787 83.2717 205.318 80.3566 203.609C77.4415 201.9 75.1218 198.597 75.1746 196.232C75.187 195.732 75.4726 189.794 82.0572 183.216Z" fill="#252331"/>
<path d="M39.0721 250.367C38.1633 250.367 37.2634 250.188 36.4238 249.84C35.5842 249.492 34.8213 248.983 34.1786 248.34C33.536 247.697 33.0263 246.934 32.6785 246.095C32.3308 245.255 32.1518 244.355 32.1518 243.446V213.458C32.1518 211.623 32.8809 209.863 34.1787 208.565C35.4765 207.267 37.2368 206.538 39.0721 206.538C40.9075 206.538 42.6677 207.267 43.9655 208.565C45.2633 209.863 45.9924 211.623 45.9924 213.458V243.446C45.9924 244.355 45.8135 245.255 45.4657 246.095C45.1179 246.934 44.6082 247.697 43.9656 248.34C43.323 248.983 42.5601 249.492 41.7205 249.84C40.8808 250.188 39.9809 250.367 39.0721 250.367V250.367Z" fill="#252331"/>
<path d="M45.1398 179.174C44.7599 180 44.2212 180.742 43.5543 181.36C42.8874 181.977 42.1055 182.457 41.2531 182.772C40.4007 183.088 39.4946 183.232 38.5865 183.197C37.6784 183.162 36.786 182.948 35.9605 182.568L8.71747 170.034C7.05206 169.266 5.75978 167.868 5.12457 166.147C4.48936 164.427 4.56317 162.524 5.32977 160.858C6.09638 159.192 7.49308 157.898 9.21301 157.261C10.9329 156.624 12.8354 156.696 14.5024 157.46L41.7454 169.995C42.571 170.374 43.3137 170.913 43.9312 171.58C44.5486 172.247 45.0286 173.029 45.3438 173.881C45.6589 174.734 45.8032 175.64 45.7682 176.548C45.7332 177.456 45.5196 178.348 45.1398 179.174V179.174Z" fill="#252331"/>
<path d="M5.63355 198.347C6.01339 199.173 6.55213 199.915 7.219 200.533C7.88588 201.15 8.66782 201.63 9.52021 201.945C10.3726 202.261 11.2787 202.405 12.1868 202.37C13.095 202.335 13.9873 202.121 14.8129 201.741L42.0559 189.207C43.7232 188.44 45.0176 187.042 45.6541 185.32C46.2907 183.599 46.2173 181.695 45.4502 180.028C44.6831 178.36 43.285 177.066 41.5635 176.43C39.8421 175.793 37.9383 175.866 36.2709 176.633L9.02784 189.168C8.20223 189.547 7.45957 190.086 6.84217 190.753C6.22477 191.42 5.74477 192.202 5.42957 193.054C5.11438 193.907 4.97013 194.813 5.00513 195.721C5.04013 196.629 5.25369 197.521 5.63355 198.347V198.347Z" fill="#252331"/>
<path d="M94.4346 250.367C95.3434 250.367 96.2433 250.188 97.0829 249.84C97.9226 249.492 98.6854 248.983 99.3281 248.34C99.9707 247.697 100.48 246.934 100.828 246.095C101.176 245.255 101.355 244.355 101.355 243.446V213.458C101.355 211.623 100.626 209.863 99.328 208.565C98.0302 207.267 96.27 206.538 94.4346 206.538C92.5992 206.538 90.839 207.267 89.5412 208.565C88.2434 209.863 87.5143 211.623 87.5143 213.458V243.446C87.5143 244.355 87.6932 245.255 88.041 246.095C88.3888 246.934 88.8986 247.697 89.5412 248.34C90.1838 248.983 90.9467 249.492 91.7863 249.84C92.6259 250.188 93.5258 250.367 94.4346 250.367V250.367Z" fill="#252331"/>
<path d="M123.356 56.2249C123.954 55.4717 124.385 54.6002 124.622 53.668C124.859 52.7357 124.895 51.7639 124.729 50.8165L120.963 28.6595L117.196 6.50254C116.993 5.30621 116.478 4.18449 115.704 3.25013C114.93 2.31576 113.923 1.60168 112.785 1.17963C111.648 0.757583 110.419 0.642453 109.222 0.845813C108.026 1.04917 106.904 1.56386 105.97 2.33814L88.6648 16.6784L78.2389 25.3179C71.2858 24.0815 64.1789 23.9744 57.1918 25.0006L47.1488 16.6784L29.8435 2.33814C28.9091 1.56386 27.7874 1.04919 26.5911 0.845828C25.3948 0.642469 24.166 0.757598 23.0283 1.17964C21.8906 1.60169 20.8839 2.31577 20.1097 3.25014C19.3354 4.18451 18.8207 5.30623 18.6173 6.50255L14.851 28.6596L11.0846 50.8165C10.8835 51.9811 10.9873 53.1778 11.386 54.2903C4.93134 64.1854 1.24586 75.6292 0.712993 87.4314C0.180121 99.2336 2.81928 110.963 8.356 121.4C13.8927 131.836 22.1247 140.598 32.1957 146.775C42.2666 152.952 53.8086 156.317 65.6211 156.521C77.4335 156.725 89.0849 153.761 99.3633 147.936C109.642 142.111 118.171 133.638 124.065 123.399C129.959 113.16 133.002 101.529 132.877 89.715C132.752 77.9014 129.465 66.3371 123.356 56.2249V56.2249Z" fill="#252331"/>
<path d="M28.1093 11.418C27.6989 11.4186 27.2919 11.4924 26.9074 11.6361C26.3422 11.8419 25.8419 12.1945 25.458 12.6576C25.0741 13.1208 24.8204 13.6778 24.7231 14.2714L20.1557 41.141C20.0551 41.7333 20.1121 42.3416 20.3211 42.9049C20.5301 43.4682 20.8837 43.9665 21.3463 44.3499C21.8089 44.7332 22.3643 44.988 22.9566 45.0886C23.5489 45.1893 24.1572 45.1323 24.7205 44.9233L50.2737 35.4439C50.8369 35.2349 51.3352 34.8814 51.7185 34.4189C52.1018 33.9564 52.3566 33.4011 52.4573 32.8089C52.5579 32.2167 52.5009 31.6084 52.292 31.0452C52.0831 30.482 51.7297 29.9837 51.2672 29.6004L51.2668 29.5996L30.2813 12.2098C29.6723 11.6997 28.9037 11.4194 28.1093 11.418V11.418Z" fill="#E6E6E6"/>
<path d="M107.704 11.418C106.91 11.4194 106.141 11.6997 105.532 12.2098L84.5465 29.6004C84.084 29.9837 83.7305 30.482 83.5216 31.0452C83.3127 31.6084 83.2557 32.2167 83.3564 32.8089C83.4571 33.4011 83.7118 33.9564 84.0951 34.4189C84.4784 34.8814 84.9767 35.2349 85.5399 35.4439L111.093 44.9233C111.656 45.1323 112.265 45.1893 112.857 45.0886C113.449 44.988 114.005 44.7332 114.467 44.3499C114.93 43.9665 115.284 43.4682 115.493 42.9049C115.701 42.3416 115.759 41.7333 115.658 41.141L111.091 14.2714C110.993 13.6778 110.74 13.1208 110.356 12.6576C109.972 12.1945 109.471 11.8419 108.906 11.6361C108.522 11.4924 108.115 11.4186 107.704 11.418Z" fill="#E6E6E6"/>
<path d="M66.7535 108.885C71.8495 108.885 75.9806 104.754 75.9806 99.6578C75.9806 94.5618 71.8495 90.4307 66.7535 90.4307C61.6575 90.4307 57.5264 94.5618 57.5264 99.6578C57.5264 104.754 61.6575 108.885 66.7535 108.885Z" fill="#E6E6E6"/>
<path d="M66.7535 97.3508C70.1508 97.3508 72.9049 96.3181 72.9049 95.0441C72.9049 93.7701 70.1508 92.7373 66.7535 92.7373C63.3562 92.7373 60.6021 93.7701 60.6021 95.0441C60.6021 96.3181 63.3562 97.3508 66.7535 97.3508Z" fill="#252331"/>
<path d="M62.14 105.04H70.5981V115.421C70.5981 115.976 70.4887 116.526 70.2761 117.039C70.0636 117.552 69.7521 118.018 69.3594 118.411C68.9667 118.804 68.5005 119.115 67.9874 119.328C67.4743 119.54 66.9243 119.65 66.369 119.65V119.65C65.2473 119.65 64.1716 119.204 63.3785 118.411C62.5854 117.618 62.1399 116.542 62.1399 115.421V105.04H62.14Z" fill="#FF6584"/>
<path d="M67.2667 0.379883C66.8232 1.29964 66.3926 2.22937 65.9875 3.17809C61.2155 14.3072 59.6062 26.5371 61.3367 38.5219C62.2025 37.2658 63.1123 35.9572 64.0377 34.6342C62.0557 23.1318 63.1702 11.3092 67.2667 0.379883V0.379883Z" fill="#252331"/>
<path d="M74.1871 8.83789C73.7436 9.75765 73.313 10.6874 72.908 11.6361C68.1359 22.7653 66.5266 34.9952 68.2571 46.98C69.1229 45.7239 70.0327 44.4152 70.9581 43.0922C68.9762 31.5899 70.0906 19.7673 74.1871 8.83789V8.83789Z" fill="#252331"/>
<path d="M95.5229 174.889L94.548 162.491L93.5732 150.093C93.5205 149.423 93.2926 148.78 92.9123 148.226C92.532 147.673 92.0127 147.229 91.4067 146.94C90.8006 146.651 90.1292 146.527 89.4598 146.579C88.7904 146.632 88.1465 146.86 87.5931 147.24L77.3436 154.283L69.8589 159.427C69.3806 158.867 68.7865 158.417 68.1176 158.108C67.4487 157.8 66.7209 157.64 65.9844 157.64C65.2478 157.64 64.52 157.8 63.8511 158.108C63.1822 158.417 62.5881 158.867 62.1098 159.427L54.6252 154.283L44.3757 147.24C43.8223 146.86 43.1785 146.632 42.5091 146.579C41.8397 146.527 41.1682 146.651 40.5621 146.94C39.9561 147.229 39.4368 147.673 39.0565 148.226C38.6762 148.78 38.4483 149.423 38.3956 150.093L37.4208 162.491L36.4459 174.889C36.3932 175.558 36.5178 176.23 36.8069 176.836C37.096 177.442 37.5395 177.961 38.0929 178.342C38.6464 178.722 39.2901 178.95 39.9595 179.002C40.6289 179.055 41.3004 178.93 41.9065 178.641L53.131 173.287L62.3536 168.887C62.8281 169.368 63.3934 169.749 64.0167 170.01C64.64 170.271 65.3088 170.405 65.9844 170.405C66.6599 170.405 67.3287 170.271 67.952 170.01C68.5753 169.749 69.1406 169.368 69.6152 168.887L78.8378 173.287L90.0623 178.641C90.6684 178.93 91.3398 179.055 92.0092 179.002C92.6786 178.95 93.3224 178.722 93.8758 178.342C94.4293 177.961 94.8728 177.442 95.1619 176.836C95.451 176.23 95.5756 175.558 95.5229 174.889V174.889Z" fill="#FF6804"/>
<path d="M76.6056 89.302C76.6056 90.576 77.6384 89.302 78.9124 89.302C80.1864 89.302 81.2191 90.576 81.2191 89.302C81.2179 88.691 80.9743 88.1055 80.5418 87.6739C80.1093 87.2424 79.5233 87 78.9124 87C78.3014 87 77.7154 87.2424 77.2829 87.6739C76.8505 88.1055 76.6069 88.691 76.6056 89.302V89.302Z" fill="#E6E6E6"/>
<path d="M56.6136 89.302C56.6136 90.576 55.5808 89.302 54.3068 89.302C53.0328 89.302 52 90.576 52 89.302C52.0013 88.691 52.2449 88.1055 52.6773 87.6739C53.1098 87.2424 53.6958 87 54.3068 87C54.9178 87 55.5038 87.2424 55.9362 87.6739C56.3687 88.1055 56.6123 88.691 56.6136 89.302V89.302Z" fill="#E6E6E6"/>
</svg>
