<svg width="1343" height="1024" viewBox="0 0 1343 1024" fill="none" xmlns="http://www.w3.org/2000/svg">
<path d="M702.629 705.02C701.463 705.668 700.592 706.77 700.207 708.084C699.822 709.398 699.956 710.816 700.578 712.028L949.694 1196.34C950.318 1197.56 951.38 1198.46 952.645 1198.86C953.911 1199.26 955.278 1199.12 956.446 1198.47L1308.6 1003.32C1309.76 1002.68 1310.63 1001.57 1311.02 1000.26C1311.4 998.945 1311.27 997.527 1310.65 996.315L1061.53 511.998C1060.91 510.787 1059.85 509.883 1058.58 509.484C1057.31 509.084 1055.95 509.223 1054.78 509.868L702.629 705.02Z" fill="#3F3D56"/>
<path d="M735.363 719.172L963.33 1162.36L1275.86 989.171L1047.9 545.974L735.363 719.172ZM715.56 730.146L715.603 730.123L715.554 730.148L715.56 730.146Z" fill="white"/>
<path d="M814.164 767.897C809.309 770.587 808.275 778.442 811.856 785.404C815.437 792.365 822.3 795.844 827.155 793.153L1056.05 666.305C1060.91 663.614 1061.94 655.759 1058.36 648.798C1054.78 641.836 1047.92 638.358 1043.06 641.048L814.164 767.897Z" fill="#6C63FF"/>
<path d="M842.365 822.725C837.51 825.416 836.476 833.27 840.057 840.232C843.638 847.194 850.501 850.672 855.357 847.981L1084.25 721.133C1089.11 718.442 1090.14 710.588 1086.56 703.626C1082.98 696.664 1076.12 693.186 1071.26 695.877L842.365 822.725Z" fill="#6C63FF"/>
<path d="M870.567 877.553C865.712 880.244 864.678 888.099 868.259 895.06C871.84 902.022 878.703 905.5 883.559 902.81L1112.46 775.961C1117.31 773.271 1118.35 765.416 1114.76 758.454C1111.18 751.493 1104.32 748.014 1099.46 750.705L870.567 877.553Z" fill="#6C63FF"/>
<path d="M898.77 932.381C893.914 935.072 892.881 942.927 896.462 949.888C900.043 956.85 906.905 960.329 911.761 957.638L1140.66 830.79C1145.51 828.099 1146.55 820.244 1142.97 813.283C1139.39 806.321 1132.52 802.842 1127.67 805.533L898.77 932.381Z" fill="#6C63FF"/>
<path d="M926.971 987.21C922.116 989.9 921.082 997.755 924.663 1004.72C928.244 1011.68 935.107 1015.16 939.963 1012.47L1168.86 885.618C1173.72 882.927 1174.75 875.072 1171.17 868.111C1167.59 861.149 1160.72 857.671 1155.87 860.361L926.971 987.21Z" fill="#6C63FF"/>
<path d="M971.42 495.777L1178.83 508.923L1236.91 329.123L1054.99 289.226L971.42 495.777Z" fill="#2F2E41"/>
<path d="M1121 450.312C1166.82 450.312 1203.95 411.763 1203.95 364.21C1203.95 316.658 1166.82 278.109 1121 278.109C1075.19 278.109 1038.05 316.658 1038.05 364.21C1038.05 411.763 1075.19 450.312 1121 450.312Z" fill="#FFB8B8"/>
<path d="M1334.01 1136.09L1334.55 1142.79C1230.13 1180.11 1118.42 1189.93 1009.44 1171.36L978.635 1165.32L1007.95 1097.84L1027.17 1053.61L1020.25 900.577L1019.52 884.741L1018.61 864.54L1031.13 864.464L1120.13 863.906L1204.94 863.347L1217.88 863.271C1298.98 966.814 1365.9 1050.97 1334.01 1136.09Z" fill="#2F2E41"/>
<path d="M1216.65 862.002L1018.61 884.843L1011.28 742.725C988.034 681.197 1003.38 626.279 1051.61 576.997L1061.42 536.707C1063.99 526.131 1069.31 516.491 1076.8 508.834C1084.28 501.178 1093.64 495.798 1103.87 493.279C1136.29 473.981 1173.01 464.783 1214.21 466.102C1230.66 472.772 1244.62 484.757 1254 500.289C1263.39 515.82 1267.72 534.074 1266.35 552.354C1257.83 664.043 1242.53 768.593 1216.65 862.002Z" fill="#6C63FF"/>
<path d="M1058.25 262.482C1058.25 262.482 1015.36 278.729 1014.26 337.796C1014.2 347.736 1015.48 357.635 1018.06 367.207C1020.84 378.063 1023.07 401.617 1004.36 433.016C992.144 453.396 981.095 474.508 971.277 496.243V496.243L1019.57 501.08L1027.56 417.979C1031.43 377.69 1041 338.212 1055.95 300.816L1056.26 300.035C1056.26 300.035 1078.42 340.007 1120.53 338.775L1105.06 323.605C1105.06 323.605 1157.81 344.221 1186.49 348.36C1189.76 348.833 1192.85 350.224 1195.41 352.384C1197.98 354.543 1199.93 357.388 1201.06 360.613C1202.18 363.838 1202.44 367.321 1201.8 370.686C1201.16 374.052 1199.65 377.172 1197.43 379.71C1197.26 379.902 1197.09 380.093 1196.91 380.286C1179.37 399.546 1144.46 444.311 1166.45 478.038C1188.44 511.765 1170.64 521.659 1170.64 521.659L1203.22 501.959L1218.01 492.153L1218.35 504.642L1296.3 492.989C1296.3 492.989 1317.27 489.251 1270.71 437.495C1270.71 437.495 1258.24 417.232 1262.97 399.303C1266.88 385.668 1267.62 371.261 1265.11 357.273C1253.41 299.039 1210.6 183.836 1058.25 262.482Z" fill="#2F2E41"/>
<path d="M1077.29 620.909L1074.75 637.253L1047.95 808.708L1031.13 864.464L1025.21 884.082L1020.25 900.577L959.931 1100.56L943.382 1140.92C934.302 1144.4 926.498 1150.75 921.062 1159.06C915.626 1167.38 912.83 1177.25 913.065 1187.3C913.299 1197.34 916.553 1207.06 922.37 1215.09C928.188 1223.13 936.278 1229.07 945.511 1232.1C954.743 1235.12 964.656 1235.08 973.862 1231.97C983.069 1228.86 991.109 1222.84 996.858 1214.75C1002.61 1206.67 1005.78 1196.92 1005.93 1186.87C1006.08 1176.83 1003.2 1166.98 997.693 1158.71L1115.75 873.651L1120.13 863.906L1133.52 834.087L1158.83 635.908L1160.42 623.447L1077.29 620.909Z" fill="#FFB8B8"/>
<path d="M1175.09 641.212C1136.67 626.88 1099.8 625.356 1065.07 641.212L1076.4 539.204C1075.99 526.465 1080.4 514.066 1088.7 504.672C1097 495.279 1108.52 489.641 1120.79 488.971C1133.2 488.293 1145.37 492.761 1154.61 501.393C1163.85 510.025 1169.4 522.113 1170.06 534.998L1170.07 535.166L1175.09 641.212Z" fill="#6C63FF"/>
</svg>
