<svg width="1700" height="1200" viewBox="0 0 1700 1200" fill="none" xmlns="http://www.w3.org/2000/svg">
<path d="M1534 164H1244C1232.95 164 1224 172.954 1224 184V397C1224 408.046 1232.95 417 1244 417H1534C1545.05 417 1554 408.046 1554 397V184C1554 172.954 1545.05 164 1534 164Z" fill="#E1E5F0"/>
<path d="M1411.25 347.146V356.804C1411.25 357.8 1411.14 358.162 1410.95 358.526C1410.75 358.89 1410.47 359.176 1410.1 359.37C1409.74 359.565 1409.38 359.669 1408.38 359.669H1296.66V344.281H1408.38C1409.38 344.281 1409.74 344.385 1410.1 344.58C1410.47 344.774 1410.75 345.06 1410.95 345.424C1411.14 345.789 1411.25 346.15 1411.25 347.146Z" fill="#D8DEED"/>
<path d="M1524.95 316.371V326.029C1524.95 327.025 1524.84 327.386 1524.65 327.75C1524.45 328.114 1524.17 328.4 1523.8 328.595C1523.44 328.79 1523.08 328.893 1522.08 328.893L1296.66 328.893V313.506L1522.08 313.506C1523.08 313.506 1523.44 313.61 1523.8 313.804C1524.17 313.999 1524.45 314.285 1524.65 314.649C1524.84 315.013 1524.95 315.374 1524.95 316.371Z" fill="#F2F6FB"/>
<path d="M1494.98 285.596V295.254C1494.98 296.25 1494.88 296.612 1494.68 296.976C1494.49 297.34 1494.2 297.626 1493.84 297.821C1493.47 298.015 1493.11 298.119 1492.11 298.119L1296.66 298.119V282.731L1492.11 282.731C1493.11 282.731 1493.47 282.835 1493.84 283.03C1494.2 283.225 1494.49 283.51 1494.68 283.875C1494.88 284.239 1494.98 284.6 1494.98 285.596Z" fill="#D8DEED"/>
<path d="M1427.11 254.821V264.479C1427.11 265.475 1427.01 265.836 1426.81 266.2C1426.62 266.565 1426.33 266.85 1425.97 267.045C1425.6 267.24 1425.24 267.344 1424.25 267.344H1296.66V251.956L1424.25 251.956C1425.24 251.956 1425.6 252.06 1425.97 252.255C1426.33 252.449 1426.62 252.735 1426.81 253.099C1427.01 253.463 1427.11 253.825 1427.11 254.821Z" fill="#D8DEED"/>
<path d="M1460.6 224.045V233.704C1460.6 234.7 1460.5 235.061 1460.31 235.425C1460.11 235.789 1459.83 236.075 1459.46 236.27C1459.1 236.465 1458.74 236.568 1457.74 236.568L1296.66 236.568V221.181L1457.74 221.181C1458.74 221.181 1459.1 221.284 1459.46 221.479C1459.83 221.674 1460.11 221.96 1460.31 222.324C1460.5 222.688 1460.6 223.049 1460.6 224.045Z" fill="#D8DEED"/>
<path d="M831.471 131H497C485.954 131 477 139.954 477 151V397C477 408.046 485.954 417 497 417H831.471C842.517 417 851.471 408.046 851.471 397V151C851.471 139.954 842.517 131 831.471 131Z" fill="#F2F6FB"/>
<path d="M670.307 355.292C712.206 331.102 726.557 277.517 702.36 235.607C678.163 193.698 624.582 179.333 582.683 203.524C540.784 227.714 526.434 281.299 550.63 323.209C574.827 365.118 628.408 379.483 670.307 355.292ZM648.869 318.161C627.472 330.514 600.109 323.179 587.753 301.776C575.396 280.374 582.724 253.009 604.121 240.655C625.518 228.302 652.881 235.637 665.238 257.04C677.595 278.442 670.266 305.807 648.869 318.161Z" fill="#E1E5F0"/>
<mask id="mask0_201_126" style="mask-type:alpha" maskUnits="userSpaceOnUse" x="517" y="185" width="218" height="203">
<path d="M571.851 185.114C520.052 215.019 502.311 281.264 532.225 333.076C562.138 384.887 628.378 402.646 680.177 372.74C731.975 342.834 749.716 276.589 719.803 224.778L682.931 246.066C701.084 277.508 690.318 317.71 658.883 335.859C627.449 354.007 587.25 343.231 569.096 311.788C550.943 280.345 561.71 240.144 593.144 221.995L571.851 185.114Z" fill="white"/>
</mask>
<g mask="url(#mask0_201_126)">
<path d="M571.851 185.114C520.052 215.019 502.311 281.264 532.225 333.076C562.138 384.887 628.378 402.646 680.177 372.74C731.975 342.834 749.716 276.589 719.803 224.778L682.931 246.066C701.084 277.508 690.318 317.71 658.883 335.859C627.449 354.007 587.25 343.231 569.096 311.788C550.943 280.345 561.71 240.144 593.144 221.995L571.851 185.114Z" fill="white"/>
<path d="M573.709 184.873C516.304 204.396 497.361 283.845 527.274 335.656C557.188 387.468 648.262 405.547 682.035 372.5L660.995 333.256C629.421 351.486 588.855 343.137 570.702 311.694C552.548 280.251 563.428 239.984 595.002 221.755L573.709 184.873Z" fill="#FF6804"/>
</g>
<path d="M790.615 230.169H767.395C766.29 230.169 765.395 231.064 765.395 232.169V255.061C765.395 256.165 766.29 257.061 767.395 257.061H790.615C791.72 257.061 792.615 256.165 792.615 255.061V232.169C792.615 231.064 791.72 230.169 790.615 230.169Z" fill="#FF6804"/>
<path d="M790.615 269.546H767.395C766.29 269.546 765.395 270.441 765.395 271.546V294.438C765.395 295.542 766.29 296.438 767.395 296.438H790.615C791.72 296.438 792.615 295.542 792.615 294.438V271.546C792.615 270.441 791.72 269.546 790.615 269.546Z" fill="white"/>
<path d="M790.615 308.924H767.395C766.29 308.924 765.395 309.819 765.395 310.924V333.816C765.395 334.92 766.29 335.816 767.395 335.816H790.615C791.72 335.816 792.615 334.92 792.615 333.816V310.924C792.615 309.819 791.72 308.924 790.615 308.924Z" fill="#E1E5F0"/>
<path d="M477 147.175C477 138.242 484.242 131 493.177 131H833.823C842.757 131 850 138.24 850 147.175V163.35H477V147.175Z" fill="#E1E5F0"/>
<path d="M1228 57H847C835.954 57 827 65.9543 827 77V351.19C827 362.236 835.954 371.19 847 371.19H1228C1239.05 371.19 1248 362.236 1248 351.19V77C1248 65.9543 1239.05 57 1228 57Z" fill="#F2F6FB"/>
<mask id="mask1_201_126" style="mask-type:alpha" maskUnits="userSpaceOnUse" x="834" y="110" width="407" height="261">
<path d="M834.301 110.444H1240.7V366.883C1240.7 369.092 1238.91 370.883 1236.69 370.883H838.307C836.094 370.883 834.301 369.099 834.301 366.883V110.444Z" fill="white"/>
</mask>
<g mask="url(#mask1_201_126)">
<path d="M834.301 110.444H1240.7V366.883C1240.7 369.092 1238.91 370.883 1236.69 370.883H838.307C836.094 370.883 834.301 369.099 834.301 366.883V110.444Z" fill="#F2F6FB"/>
<path d="M1058.93 358.692V380.857H1079.62V392.678H995.382V380.857H1016.07V358.692H919.584C917.373 358.692 915.58 356.91 915.58 354.691V329.139H1159.42V354.691C1159.42 356.901 1157.63 358.692 1155.42 358.692H1058.93Z" fill="#D8DEED"/>
<path fill-rule="evenodd" clip-rule="evenodd" d="M915.58 195.714C915.58 193.506 917.368 191.716 919.584 191.716H1155.42C1157.63 191.716 1159.42 193.509 1159.42 195.714V333.572H915.58V195.714Z" fill="white"/>
<path d="M1039.77 277.757L1038.18 277.779L1038.19 277.757H1017.47C1016.59 277.757 1016.25 277.149 1016.71 276.388L1031.13 252.967C1031.6 252.21 1032.36 252.193 1032.85 252.936L1043.41 269.267L1047.24 263.04C1047.7 262.289 1048.48 262.276 1048.97 263.003L1057.83 276.021C1058.33 276.751 1058.01 277.365 1057.13 277.393L1049.7 277.625L1048.55 277.641L1048.62 277.757C1048.62 277.757 1047.91 277.757 1047.02 277.757H1039.77ZM1048.42 256.121C1046.48 256.121 1044.92 254.522 1044.92 252.549C1044.92 250.575 1046.48 248.976 1048.42 248.976C1050.35 248.976 1051.92 250.575 1051.92 252.549C1051.92 254.522 1050.35 256.121 1048.42 256.121Z" fill="#D8DEED"/>
</g>
<path d="M1082.13 158.676H993.664C992.559 158.676 991.664 159.571 991.664 160.676V171.407C991.664 172.511 992.559 173.407 993.664 173.407H1082.13C1083.23 173.407 1084.13 172.511 1084.13 171.407V160.676C1084.13 159.571 1083.23 158.676 1082.13 158.676Z" fill="#D8DEED"/>
<path d="M1128.36 134.738H947.432C946.327 134.738 945.432 135.634 945.432 136.738V147.469C945.432 148.574 946.327 149.469 947.432 149.469H1128.36C1129.47 149.469 1130.36 148.574 1130.36 147.469V136.738C1130.36 135.634 1129.47 134.738 1128.36 134.738Z" fill="#D8DEED"/>
<path d="M827 74.8149C827 64.976 834.976 57 844.821 57H1230.18C1240.02 57 1248 64.9738 1248 74.8149V92.6298H827V74.8149Z" fill="#E1E5F0"/>
<path d="M850.93 82.9129C855.186 82.9129 858.636 79.4688 858.636 75.2201C858.636 70.9715 855.186 67.5273 850.93 67.5273C846.674 67.5273 843.224 70.9715 843.224 75.2201C843.224 79.4688 846.674 82.9129 850.93 82.9129Z" fill="#FF5645"/>
<path d="M876.076 82.9129C880.332 82.9129 883.782 79.4688 883.782 75.2201C883.782 70.9715 880.332 67.5273 876.076 67.5273C871.82 67.5273 868.37 70.9715 868.37 75.2201C868.37 79.4688 871.82 82.9129 876.076 82.9129Z" fill="#FFCB3D"/>
<path d="M902.033 82.9129C906.289 82.9129 909.739 79.4688 909.739 75.2201C909.739 70.9715 906.289 67.5273 902.033 67.5273C897.777 67.5273 894.327 70.9715 894.327 75.2201C894.327 79.4688 897.777 82.9129 902.033 82.9129Z" fill="#3ABF7C"/>
<path d="M1030.6 865.6V793.7C1030.6 750.1 1030.6 706.6 1030.6 663.1V596.4C1030.6 594 989.1 592 939.2 592H928.8C879 592 837.4 594 837.4 596.4V865.8C837.4 868.2 878.9 870.2 928.8 870.2H939.2C989 870.3 1030.6 868.2 1030.6 865.6Z" fill="#D8DEED"/>
<path d="M735.501 1104.8L735.901 1105C738.001 1106.1 740.701 1105.5 741.701 1103.6L858.801 888.5C859.901 886.5 859.001 884 856.901 882.9L856.501 882.7C854.401 881.6 851.701 882.2 850.701 884.1L821.701 937.3C802.801 972.1 783.901 1006.8 764.901 1041.6L733.601 1099C732.501 1101 733.401 1103.6 735.501 1104.8Z" fill="#D8DEED"/>
<path d="M1026.2 879.2H952.901C908.501 879.2 864.101 879.2 819.801 879.2H751.801C749.401 879.2 747.301 881.2 747.301 883.6V884.1C747.301 886.5 749.301 888.5 751.801 888.5H1026.4C1028.8 888.5 1030.9 886.5 1030.9 884.1V883.6C1030.9 881.2 1028.8 879.2 1026.2 879.2Z" fill="#D8DEED"/>
<path d="M1062 1099L1030.7 1041.6C1011.8 1006.8 992.901 972.1 973.901 937.3L944.901 884.1C943.901 882.2 941.201 881.5 939.101 882.7L938.701 882.9C936.601 884 935.701 886.6 936.801 888.5L1053.9 1103.6C1054.9 1105.5 1057.6 1106.2 1059.7 1105L1060.1 1104.8C1062.2 1103.6 1063.1 1101 1062 1099Z" fill="#D8DEED"/>
<path d="M705.775 1112C703.374 1112 701.272 1110 701.272 1107.5C701.272 1105 703.274 1103 705.775 1103H864.77C867.271 1103 869.272 1105 869.272 1107.5C869.272 1110 867.271 1112 864.77 1112H705.775ZM997.959 1112H897.671C895.325 1112 893.272 1110.27 893.272 1108.19V1106.81C893.272 1104.73 895.227 1103 897.671 1103H997.861C1000.21 1103 1002.26 1104.73 1002.26 1106.81V1108.19C1002.46 1110.27 1000.4 1112 997.959 1112Z" fill="#FF5645"/>
<path d="M866.5 1103.34C865.969 1103.12 865.384 1103 864.77 1103H705.775C705.367 1103 704.973 1103.05 704.598 1103.15C704.358 1102.72 704.179 1102.24 704.073 1101.72V1101.62C704.073 1101.12 703.973 1100.62 704.073 1100.12C704.173 1099.52 704.173 1099.02 704.373 1098.42C705.673 1093.92 709.173 1090.12 711.473 1088.02C711.773 1087.72 711.973 1087.62 712.273 1087.42C716.673 1084.72 721.173 1082.22 725.873 1080.12C735.073 1075.92 755.473 1067.32 761.573 1064.22C769.473 1060.22 780.373 1053.42 791.773 1041.22C792.373 1040.92 793.173 1040.52 793.173 1040.52L862.173 1036.82C862.173 1036.82 863.473 1039.82 863.473 1039.92L866.973 1101.22C866.973 1101.98 866.803 1102.7 866.5 1103.34ZM999.026 1103.14C998.652 1103.05 998.261 1103 997.861 1103H897.671C897.128 1103 896.61 1103.09 896.131 1103.24L905.373 1049.82L971.254 1037.29L999.026 1103.14V1103.14Z" fill="#474961"/>
<path d="M961.997 879.781C972.472 926.755 982.571 975.348 991.532 1023.65C991.989 1026.03 992.789 1031.59 990.099 1036.79C985.133 1046.31 972.656 1045.7 942.727 1048.95C907.491 1052.9 892.727 1057.3 884.909 1047.57C882.267 1044.45 881.426 1041.17 881.153 1039.68C878.848 1026.05 873.181 1003.29 866.243 975.976C869.203 989.672 872.088 1003.39 874.882 1017.09C875.381 1019.46 876.28 1025.01 873.683 1030.25C868.888 1039.86 856.403 1039.46 826.536 1043.23C791.376 1047.78 776.693 1052.43 768.702 1042.83C766.005 1039.76 765.106 1036.49 764.806 1035.01C757.514 996.094 721.355 882.921 707.271 801.729C707.271 801.531 707.171 801.432 707.171 801.234C702.676 774.995 719.557 750.439 744.629 747.073C752.92 745.984 761.21 744.895 769.501 743.805C771.026 743.609 772.546 743.495 774.055 743.462L774.041 743.429L895.571 732.075C974.39 731.241 1013.8 730.824 1013.8 730.824C1014.1 744.166 1016.82 794.89 1015.82 813.935C1014.24 844.033 1007.45 872.96 973.857 879.568C970.209 879.815 966.232 879.878 961.997 879.781Z" fill="#474BFF"/>
<path opacity="0.176986" d="M961.962 879.95C954.603 846.931 947.057 814.707 939.587 783.942C934.003 760.98 913.195 745.776 890.873 748.266C882.564 749.214 874.255 750.161 865.946 751.108C840.818 754.045 823.502 778.3 827.528 804.601C827.524 804.799 827.622 804.899 827.619 805.097C828.848 813.02 830.282 821.249 831.873 829.685C827.472 812.162 823.057 794.967 818.672 778.207C813.537 758.613 797.334 744.905 778.79 743.183L895.803 732.251C974.622 731.417 1014.03 731 1014.03 731C1014.33 744.342 1017.05 795.066 1016.05 814.111C1014.48 844.209 1007.68 873.135 974.089 879.744C970.365 879.996 966.297 880.056 961.962 879.95Z" fill="#444444"/>
<path d="M825.658 809.811L873.07 1013.59C873.258 1014.4 874.064 1014.9 874.871 1014.71C875.678 1014.52 876.18 1013.72 875.992 1012.91L828.58 809.131C828.393 808.324 827.586 807.822 826.78 808.01C825.973 808.198 825.471 809.004 825.658 809.811Z" fill="#482D1F"/>
<path d="M925.462 530.139C940.899 518.115 958.118 511.938 977.12 511.606C1007.57 511.074 1010.39 520.686 1005.06 539.465C1004.99 539.733 1004.9 539.994 1004.8 540.249C1004.99 540.372 1005.17 540.497 1005.35 540.624C1007.35 542.024 1010.35 544.224 1013.45 547.424C1016.15 550.124 1021.27 551.608 1027.67 576.508C1029.97 585.308 1032.75 607.283 1042.55 622.124C1052.35 636.965 1057.82 653.59 1042.55 664.6C1030.63 673.198 1020.07 674.107 1001.02 677.141C1002.66 694.57 1002.5 709.133 1000.85 719.207C1002.57 726.54 1003.12 730.907 1002.52 732.307C969.41 733.107 949.687 733.607 943.354 733.807C927.754 734.307 885.044 738.291 845.272 735.409C835.272 725.909 835.754 693.707 835.754 693.707C835.932 688.661 836.108 683.812 836.284 679.154C810.123 672.426 795.779 666.052 793.254 660.031C789.23 650.438 796.654 630.424 798.454 625.224C801.954 615.324 809.723 597.88 811.561 588.909C817.254 561.128 824.854 553.224 827.554 550.524C830.654 547.324 843.609 536.149 863.272 533.376C869.363 532.517 883.656 531.333 906.151 529.823C906.383 529.813 906.479 530.078 906.441 530.617C912.707 530.165 919.094 529.786 925.462 530.139Z" fill="#FF6804"/>
<path opacity="0.176986" d="M925.483 530.778C940.993 518.607 958.308 512.355 977.428 512.021C1007.88 511.489 1010.7 521.102 1005.37 539.88C1005.27 540.234 1005.15 540.576 1005.01 540.906C991.672 531.936 977.654 530.571 970.451 530.373C970.251 530.273 970.051 530.273 969.851 530.273L934.351 529.773C930.257 529.599 930.716 529.425 932.62 531.498C930.248 531.133 927.867 530.905 925.483 530.778ZM875.033 645.589C875.16 641.264 878.703 637.824 883.029 637.824H929.189C929.227 637.824 929.265 637.824 929.303 637.825C933.72 637.887 937.251 641.519 937.189 645.937C937.088 653.055 938.29 658.467 940.793 662.174C943.521 666.214 947.674 669.086 953.252 670.791C955.775 671.563 957.498 673.891 957.498 676.529V705.834L849.223 709.645L850.193 678.074C850.27 675.571 851.893 673.379 854.265 672.575C863.056 669.597 868.732 666.244 871.295 662.518C873.551 659.237 874.797 653.594 875.033 645.589Z" fill="#444444"/>
<path d="M941.715 495.753L934.764 537.78C934.63 538.468 934.202 539.097 933.556 539.277C930.699 540.352 926.723 541.413 922.017 541.517C913.507 541.798 906.804 539.069 903.107 537.128C902.36 536.779 901.923 535.879 902.076 535.094L905.021 517.933C899.554 518.837 899.875 518.702 899.34 518.772C892.85 519.14 887.588 517.914 886.644 517.527C883.168 516.545 880.01 512.875 877.646 507.22C874.428 499.667 872.426 488.48 872.689 475.593C872.64 473.75 872.885 471.964 873.131 470.178L876.153 452.531C876.819 448.585 878.544 444.948 881.115 441.678C882.206 440.26 883.239 439.137 884.431 438.248C897.431 426.92 915.7 432.509 918.943 433.648C919.316 433.823 919.709 433.899 920.082 434.074C923.524 435.761 926.902 436.724 930.319 437.49C933.735 438.256 954.634 476.853 954.626 478.991C954.661 481.742 948.557 488.616 941.715 495.753ZM795.828 714.267L800.554 677.624L802.097 667.521L836.419 679L835.858 697.343C848.984 695.527 865.176 695.339 883.521 699C883.895 699.074 884.262 699.149 884.623 699.226C914.817 692.716 955.603 684.417 982.863 680.821L969.795 632.124C972.178 639.157 973.745 643.555 974.013 643.597C975.313 643.797 982.213 680.585 983.013 680.385C1014.51 673.985 1027.55 675.582 1042.81 664.573C1045.02 662.984 1046.79 661.279 1048.18 659.479C1054.71 690.059 1057.82 730.923 1015.8 738.395L852.756 736.136L786.258 742.294C785.704 731.535 790.209 721.51 795.828 714.267Z" fill="#DB9E75"/>
<path d="M984.716 678.591C984.941 679.388 984.478 680.217 983.681 680.443C982.884 680.668 982.055 680.205 981.829 679.408C978.135 666.35 966.35 626.804 963.853 619.484C963.585 618.7 964.004 617.847 964.788 617.58C965.572 617.312 966.425 617.731 966.692 618.515C969.211 625.901 981.008 665.484 984.716 678.591ZM837.907 679.187C837.803 680.009 837.053 680.591 836.231 680.488C835.409 680.384 834.827 679.633 834.931 678.812L842.066 622.311C842.17 621.489 842.92 620.907 843.742 621.011C844.564 621.115 845.146 621.865 845.042 622.687L837.907 679.187Z" fill="#482D1F"/>
<path d="M905.027 517.892L912.548 516.439L903.309 527.926L905.027 517.892Z" fill="#482D1F"/>
<path d="M931.562 492.572L931.893 492.806C934.574 492.988 936.379 492.965 937.306 492.738C938.696 492.397 942.77 491.355 945.769 487.456C948.768 483.556 950.188 477.822 947.827 472.677C945.544 467.649 940.131 464.05 935.114 464.705C932.292 465.073 930.125 466.791 929.89 466.949C929.153 467.58 928.517 468.24 927.974 468.885L875.515 455.345C877.259 443.875 882.981 436.388 892.682 432.883C895.439 431.887 902.962 430.425 909.492 431.272C919.572 432.58 928.652 436.042 931.374 436.778C933.594 437.413 951.371 438.23 961.438 445.971C962.52 446.895 965.043 449.219 966.806 453.127C972.339 465.001 968.054 477.309 966.613 480.085C966.12 481.036 961.23 490.383 954.598 498.462C947.676 506.893 939.01 514.05 939.01 514.05C933.702 512.74 931.219 505.581 931.562 492.572ZM877.243 465.273C876.299 464.886 876.253 463.552 877.073 462.999C878.11 462.385 879.833 461.905 881.796 462.287C885.821 463.069 889.625 466.559 884.88 466.859C882.077 467.129 879.012 466.126 877.243 465.273ZM897.331 469.891C896.387 469.503 896.341 468.17 897.26 467.636C898.296 467.022 900.019 466.542 902.08 466.943C906.105 467.725 909.89 471.313 905.165 471.515C902.146 471.845 899.218 470.665 897.331 469.891Z" fill="#482D1F"/>
<path d="M883.544 473.731C883.121 475.381 882.293 478.072 881.12 478.863C879.165 480.011 877.96 474.683 879.827 471.888C880.566 470.707 881.291 470.645 882.058 470.895C883.197 471.321 883.773 472.553 883.544 473.731ZM901.172 476.852C900.946 478.54 900.412 481.288 899.201 482.276C897.404 483.658 895.572 478.412 897.164 475.462C897.805 474.262 898.549 474.101 899.334 474.254C900.512 474.483 901.303 475.655 901.172 476.852Z" fill="#482D1F"/>
<path d="M889.193 495.508C889.918 495.446 891.682 495.279 892.186 494.257C892.225 494.06 892.38 493.785 892.32 493.569C892.061 492.806 890.807 492.97 889.021 492.724C885.841 492.31 883.346 491.519 883.346 491.519C883.346 491.519 883.652 493.616 884.028 494.301C884.822 495.983 888.154 495.612 889.193 495.508Z" fill="#482D1F"/>
<path d="M882.875 484.563C882.475 485.634 883.122 486.888 884.205 487.292C884.445 487.363 884.445 487.363 884.602 487.406C886.233 487.855 887.259 488.104 889.037 488.449C889.579 488.555 890.104 488.201 890.21 487.658C890.315 487.116 889.961 486.591 889.419 486.486C887.697 486.151 886.718 485.914 885.133 485.477L884.82 485.391C884.818 485.386 884.751 485.256 884.758 485.238L888.28 474.996L888.316 474.862L889.442 469.07C889.548 468.528 889.193 468.003 888.651 467.898C888.109 467.793 887.584 468.147 887.479 468.689L886.366 474.412L882.875 484.563Z" fill="#482D1F"/>
<path opacity="0.2" d="M795.973 714.183C802.216 709.139 809.21 705.265 816.953 702.561C824.696 699.858 830.962 698.126 835.75 697.366L836.419 679L802.097 667.521L795.973 714.183Z" fill="#8C2A00"/>
<path d="M1020.5 1102.94H1175.5C1177.99 1102.94 1180 1104.96 1180 1107.44C1180 1109.93 1177.99 1111.94 1175.5 1111.94H1020.5C1018.02 1111.94 1016 1109.93 1016 1107.44C1016 1104.96 1018.02 1102.94 1020.5 1102.94ZM1324.24 1102.96L1422.05 1030.04C1422.76 1029.55 1423.47 1029.26 1424.27 1029.27C1425.67 1029.2 1427.06 1029.82 1427.94 1030.94L1428.23 1031.44C1429.7 1033.17 1429.25 1035.86 1427.43 1037.23L1327.91 1111.8L1269.3 1111.98C1267 1111.94 1265.13 1110.11 1265.07 1107.81L1265.08 1107.21C1265.22 1104.91 1267.06 1103.04 1269.36 1103.08L1324.24 1102.96Z" fill="#FFCB3D"/>
<path d="M1177.22 1103.02C1176.69 1102.8 1176.11 1102.68 1175.5 1102.68H1020.5C1020.03 1102.68 1019.57 1102.75 1019.14 1102.89C1019.17 1102.57 1019.22 1102.25 1019.3 1101.93C1020.5 1097.13 1022 1093.93 1026.5 1091.03C1031 1088.13 1035.6 1085.53 1040.4 1083.23C1058.1 1074.53 1064.2 1074.53 1075.8 1066.63C1080.6 1063.33 1085 1059.53 1089.1 1055.43C1091.83 1052.7 1097.77 1048.23 1106.9 1042.03L1190.42 1044.8L1177.22 1103.02ZM1423.81 1029.03C1423.19 1029.11 1422.63 1029.37 1422.05 1029.77L1324.24 1102.69L1269.36 1102.81C1269.3 1102.81 1269.24 1102.81 1269.18 1102.81C1268.98 1102.22 1268.88 1101.6 1268.89 1100.95C1269 1100.25 1269.02 1099.45 1269.23 1098.65C1270.51 1093.87 1272.63 1090.81 1277.14 1087.98C1281.66 1085.16 1285.69 1082.51 1290.49 1080.29C1299.93 1075.73 1306.09 1073.67 1311.53 1071.55C1312.33 1070.16 1313.1 1068.72 1313.84 1067.17C1314.77 1065.19 1318.86 1054.84 1320.66 1047.01C1321.86 1041.79 1323.59 1035.63 1325.83 1028.52L1327.24 1022.93L1388.64 978.488L1423.81 1029.03Z" fill="#474961"/>
<path d="M1227.08 741.667C1228.78 741.667 1231.1 741.667 1231.1 741.667C1276.1 741.567 1321.1 741.467 1366.1 741.367C1423.34 741.078 1453.33 741.067 1456.07 741.333C1458.97 742.033 1478.6 752.832 1484.2 771.767C1487.2 781.898 1489.6 795.467 1488.6 812.267C1488 818.967 1487.1 833.567 1478.6 847.567C1469.8 862.167 1457.6 871.967 1439.5 878.167C1424.1 883.367 1409 880.967 1390.4 879.267H1390.2C1389.5 879.167 1388.1 878.867 1386.4 878.567L1383 877.967C1381.1 877.567 1379.4 877.267 1378.6 877.167H1378.4C1361.2 874.067 1345.9 871.267 1330.6 868.367L1329.9 868.267C1329.06 868.101 1328.21 867.936 1327.37 867.772C1330.01 871.399 1332.53 874.899 1334.91 878.272C1341.51 887.572 1347.91 896.872 1354.11 906.072L1379.21 941.572C1383.01 946.872 1381.31 954.272 1375.41 957.972L1344.51 977.172L1316.51 995.772L1311.01 999.272C1305.51 1002.67 1298.31 1001.57 1294.61 996.672C1285.11 984.072 1278.11 974.572 1266.01 959.072C1258.4 949.241 1263.14 956.038 1238.96 930.845C1229.63 957.113 1217.52 991.924 1209.1 1006.07C1207 1009.67 1202.9 1011.57 1198.7 1010.97L1119.3 999.167C1112.5 998.167 1108.5 990.867 1111.4 984.567C1126.1 952.267 1152.19 861.2 1155.79 853C1157.01 850.234 1158.16 847.309 1159.26 844.271C1149.96 832.097 1145.39 825.221 1141.51 815.872C1138.01 807.472 1134.81 799.772 1135.01 789.372C1135.31 773.972 1143.01 756.472 1158.41 747.072C1167.01 741.772 1175.21 742.021 1180.21 741.621C1184.68 741.488 1200.29 741.488 1227.04 741.621C1227.05 741.637 1227.06 741.652 1227.08 741.667Z" fill="#DE3190"/>
<path opacity="0.176986" d="M1227.08 741.526C1225.89 741.526 1224.86 741.526 1224.86 741.526C1217.76 741.526 1216.46 743.126 1210.16 746.326C1205.26 748.726 1200.16 751.626 1194.96 755.326C1187.76 760.326 1182.26 767.426 1178.86 775.426C1178.76 775.626 1178.66 775.826 1178.56 776.126C1172.22 791.35 1167.19 820.77 1158.92 843.831C1149.85 831.93 1145.34 825.107 1141.51 815.872C1138.01 807.472 1134.81 799.772 1135.01 789.372C1135.31 773.972 1143.01 756.472 1158.41 747.072C1167.01 741.772 1175.35 741.922 1180.35 741.522C1184.82 741.389 1200.39 741.389 1227.08 741.522L1227.08 741.526ZM1327.33 867.708C1329.98 871.358 1332.51 874.88 1334.91 878.272C1341.51 887.572 1347.91 896.872 1354.11 906.072L1379.21 941.572C1383.01 946.872 1381.31 954.272 1375.41 957.972L1344.51 977.172L1316.51 995.772L1311.01 999.272C1305.51 1002.67 1298.31 1001.57 1294.61 996.672C1285.11 984.072 1278.11 974.572 1266.01 959.072C1258.36 949.192 1263.18 956.106 1238.6 930.47C1244.07 915.058 1248.57 902.629 1250.79 899.118C1255.69 891.318 1260.56 876.626 1264.86 870.926C1267.16 867.826 1270.36 863.526 1274.36 858.526C1278.86 859.126 1283.36 859.726 1287.86 860.426C1294.06 861.526 1300.26 862.726 1306.56 863.826C1313.54 865.095 1320.44 866.364 1327.33 867.708Z" fill="#444444"/>
<path d="M1255.3 837.469C1260.76 844.734 1262.45 846.773 1264.2 848.49C1265.82 850.073 1267.43 852.017 1272.8 859.169C1273.3 859.831 1274.24 859.964 1274.9 859.467C1275.56 858.969 1275.7 858.029 1275.2 857.366C1269.74 850.101 1268.06 848.062 1266.3 846.345C1264.68 844.762 1263.07 842.818 1257.7 835.666C1257.2 835.004 1256.26 834.871 1255.6 835.368C1254.94 835.866 1254.8 836.806 1255.3 837.469Z" fill="#482D1F"/>
<path d="M1447.92 654.398L1477.48 645.126C1479.51 642.636 1496.81 609.194 1461.83 592.785C1459.35 588.386 1456.63 584.124 1453.67 580.021C1444.67 567.421 1437.27 557.221 1424.07 551.121C1419.11 548.845 1414.12 547.531 1409.31 546.881C1402.64 544.364 1395.34 543.176 1387.77 543.621L1364.77 545.021C1335.57 546.621 1313.47 571.421 1315.27 600.321L1315.37 602.121L1318.27 656.267L1320.83 708.163L1322.27 718.121C1322.27 718.921 1322.37 719.621 1322.47 720.421C1322.57 721.321 1322.67 722.121 1322.77 723.021C1323.07 725.321 1329.77 740.521 1330.17 741.421L1456.07 741.621L1447.92 654.398Z" fill="#FF6804"/>
<path d="M1310.78 999.134L1316.07 995.772L1344.07 977.172L1374.56 958.223L1390.63 981.447L1328.11 1023.88L1310.78 999.134ZM1121.33 999.535L1198.26 1010.97C1198.56 1011.01 1198.85 1011.04 1199.15 1011.06L1190.42 1044.8L1106.9 1042.03L1121.33 999.535ZM1389.08 506.468L1387.55 518.207L1386.93 527.185L1385.73 544.205L1364.6 545.491C1361.59 545.657 1358.65 546.069 1355.81 546.707L1356.9 531.842C1356.48 531.91 1356.05 531.979 1355.61 532.047C1346.69 533.528 1347.2 533.364 1346.59 533.422C1340.05 533.766 1334.83 532.499 1333.85 532.13C1325.8 529.762 1319.47 512.679 1319.95 490.158C1319.97 488.355 1320.2 486.566 1320.42 484.778L1323.46 467.147C1324.14 463.184 1325.8 459.491 1328.32 456.459C1329.41 455.133 1330.49 454.005 1331.66 453.084C1344.68 441.765 1362.94 447.352 1366.17 448.48C1366.56 448.608 1366.95 448.735 1367.34 448.863C1370.84 450.511 1374.17 451.546 1377.63 452.289C1379.21 452.6 1380.2 454.173 1379.89 455.755L1374.93 480.87C1374.46 483.243 1393.83 473.066 1394.17 493.844C1394.96 498.954 1392.51 503.656 1389.08 506.468ZM1320.55 692.807C1322.81 692.428 1325.37 692.013 1328.27 691.556C1360.07 686.591 1386.91 682.837 1409.3 679.81C1409.29 679.806 1409.29 679.803 1409.28 679.8C1408.31 678.03 1406.1 673.382 1403.33 667.422C1404.01 667.456 1404.72 667.48 1405.44 667.494L1476.58 645.18C1477.21 646.861 1477.84 648.568 1478.48 650.3C1490.33 682.636 1496.83 700.013 1495.43 712.127C1495.51 712.14 1495.59 712.151 1495.67 712.161C1495.58 712.237 1495.48 712.469 1495.33 712.838C1495.27 713.252 1495.2 713.661 1495.12 714.063C1495.05 714.032 1494.97 714.001 1494.89 713.97C1493.28 718.055 1488.57 728.318 1472.07 738.265C1458.28 746.574 1397.48 747.693 1289.67 741.622C1289.56 741.54 1289.45 741.459 1289.35 741.377C1277.9 740.467 1265.4 738.061 1251.83 734.16C1255.66 735.269 1259.41 736.262 1263.09 737.136L1210.5 730.194C1201.59 727.859 1176.39 721.01 1157.32 715.885C1151.2 714.292 1145.15 712.719 1139.8 711.32C1128.7 708.42 1120.5 706.22 1120.5 706.22C1121.1 694.22 1140.1 697.22 1148.6 699.22C1159 699.72 1169.4 700.32 1179.9 700.82C1181.52 700.396 1183.43 699.928 1185.59 699.529C1177.81 694.163 1186.64 689.857 1212.1 686.61C1225.32 684.923 1235.39 686.685 1245.65 689.584L1300.35 679.434L1300.27 679.362L1316.93 632L1318.5 658.532L1318.6 659.532L1320.55 692.807Z" fill="#F2A98A"/>
<path d="M1388.57 506.549C1385.93 508.47 1383.08 509.073 1381.26 509.246C1380.15 509.369 1379.1 510.097 1378.73 511.074L1372.02 528.148C1372.02 528.148 1371.71 528.326 1371 528.477C1369.25 529.057 1364.96 530.26 1355.63 531.713C1346.71 533.194 1347.22 533.03 1346.62 533.088C1340.08 533.432 1334.85 532.165 1333.87 531.796C1325.82 529.428 1319.5 512.345 1319.97 489.823C1319.99 488.021 1320.22 486.232 1320.44 484.444L1323.48 466.812C1324.16 462.85 1325.82 459.157 1328.34 456.125C1329.43 454.798 1330.52 453.671 1331.68 452.75C1344.7 441.431 1362.96 447.018 1366.19 448.146C1366.58 448.274 1366.97 448.401 1367.36 448.529C1370.86 450.177 1374.19 451.212 1377.65 451.955C1379.23 452.266 1380.23 453.839 1379.91 455.421L1374.95 480.536C1374.48 482.909 1393.86 472.732 1394.19 493.51C1395.02 498.881 1392.27 503.801 1388.57 506.549Z" fill="#F2A98A"/>
<path d="M1356.06 539.793L1367.6 529.031L1356.06 531.604L1356.06 539.793Z" fill="#482D1F"/>
<path d="M1320.64 504.717C1317.38 508.852 1315.62 512.963 1316.65 516.411C1317.97 520.77 1322.1 522.843 1326.33 524.93C1326.37 524.948 1326.4 524.965 1326.44 524.982C1323.73 520.121 1321.66 513.12 1320.64 504.717ZM1378.67 508.526C1377.26 513.694 1374.97 520.472 1371.8 528.858C1384 533.988 1393.55 533.988 1400.46 528.858C1403.32 526.752 1409.41 505.2 1413.38 494.35C1414.64 490.729 1419 478.504 1412.97 467.256C1410.84 463.298 1408 460.894 1406.77 459.905C1400.03 454.522 1393.86 455.194 1379.07 451.653C1376.02 450.938 1371.48 449.819 1366.09 448.039C1365.7 448.011 1365.3 447.884 1364.91 447.756C1361.68 446.628 1343.78 441.821 1331.49 452.79C1330.73 453.493 1330.18 454.028 1329.86 454.396C1332.39 456.465 1334.5 457.859 1336.19 458.579C1343.29 461.582 1349.9 461.743 1354.03 461.43C1354.65 463.98 1355.65 466.957 1357.14 469.968C1361.33 478.686 1367.98 484.074 1372.13 486.923C1373.03 486.028 1375.13 484.138 1377.9 482.847C1378.21 482.668 1380.58 481.732 1383.26 482.119C1388.03 482.754 1392.1 487.55 1392.84 492.714C1393.67 498.085 1391.02 503.012 1387.32 505.76C1383.98 508.238 1380.31 508.493 1378.67 508.526Z" fill="#482D1F"/>
<path d="M1420.93 688.049C1421.66 688.446 1422.57 688.179 1422.97 687.451C1423.36 686.724 1423.1 685.813 1422.37 685.416L1409.87 678.594C1409.14 678.197 1408.23 678.465 1407.83 679.192C1407.44 679.919 1407.71 680.831 1408.43 681.227L1420.93 688.049ZM1386.95 626.347C1387.25 625.575 1386.87 624.706 1386.1 624.405C1385.33 624.105 1384.46 624.487 1384.16 625.259C1383.91 625.891 1383.74 626.352 1383.49 627.122C1383.11 628.307 1382.76 629.602 1382.46 630.999C1380.51 640.063 1381.43 649.183 1386.92 657.127C1391.44 663.648 1397.48 667.365 1403.72 669.339C1404.51 669.589 1405.35 669.152 1405.6 668.362C1405.85 667.572 1405.41 666.729 1404.62 666.479C1398.96 664.687 1393.47 661.306 1389.39 655.419C1384.44 648.259 1383.6 639.957 1385.39 631.63C1385.67 630.336 1385.99 629.138 1386.35 628.045C1386.57 627.341 1386.73 626.929 1386.95 626.347Z" fill="#482D1F"/>
<path opacity="0.2" d="M1320.06 692.987L1318.11 659.531L1318.01 658.531L1316.43 631.999L1299.77 679.361L1299.85 679.434L1244.9 689.632C1248.57 690.66 1252.27 691.838 1256.14 693.059C1261.46 694.737 1268.64 697.555 1277.7 701.515C1286.72 699.55 1292.76 698.36 1297.15 697.743C1303.64 696.831 1300.02 696.349 1320.06 692.987H1320.06ZM1185.14 699.519C1182.97 699.92 1181.03 700.392 1179.4 700.819C1168.9 700.319 1158.5 699.719 1148.1 699.219C1139.6 697.219 1120.6 694.219 1120 706.219C1120 706.219 1128.2 708.419 1139.3 711.319C1144.66 712.718 1150.7 714.292 1156.82 715.885C1175.89 721.009 1201.1 727.858 1210 730.194L1262.59 737.136C1258.91 736.261 1255.16 735.269 1251.34 734.159C1236.47 729.844 1218.12 719.952 1196.29 704.482C1191.12 702.738 1187.4 701.084 1185.14 699.519Z" fill="#8C2A00"/>
<path d="M1229.56 724.724C1219.9 719.725 1209.27 713.133 1197.67 704.95L1090.9 676.18C1087.9 675.38 1084.7 677.18 1083.9 680.28C1083.1 683.38 1084.9 686.48 1088 687.28L1226.8 724.68C1227.74 724.923 1228.69 724.926 1229.56 724.724V724.724Z" fill="#474961"/>
<path d="M1326.9 485.544C1326.71 487.426 1326.5 490.475 1325.39 491.627C1323.6 493.487 1321.03 487.819 1322.39 484.479C1323 483.115 1323.85 482.655 1324.68 482.831C1326.04 483.013 1326.97 484.173 1326.9 485.544ZM1348.83 488.162C1348.65 490.044 1348.43 493.093 1347.33 494.245C1345.53 496.105 1342.97 490.437 1344.32 487.096C1344.94 485.733 1345.79 485.273 1346.61 485.448C1347.97 485.631 1348.91 486.791 1348.83 488.162Z" fill="#482D1F"/>
<path d="M1331.84 487.316L1328.94 496.614C1328.68 497.811 1329.36 499.108 1330.5 499.351C1331.17 499.548 1331.6 499.64 1333.35 499.978C1334.13 500.129 1334.66 500.236 1335.29 500.37C1335.83 500.484 1336.36 500.14 1336.48 499.599C1336.59 499.059 1336.25 498.528 1335.71 498.413C1335.07 498.276 1334.52 498.167 1333.73 498.014C1332.05 497.69 1331.64 497.603 1330.99 497.413C1330.95 497.401 1330.85 497.22 1330.87 497.119L1333.75 487.911C1333.91 487.384 1333.62 486.823 1333.09 486.659C1332.56 486.495 1332 486.789 1331.84 487.316Z" fill="#482D1F"/>
<path d="M1335.49 506.584C1336.18 506.508 1337.93 506.096 1338.34 505.066C1338.39 504.852 1338.55 504.551 1338.48 504.424C1338.22 503.81 1336.92 503.98 1335.17 503.944C1332.07 503.845 1329.56 503.31 1329.56 503.31C1329.56 503.31 1330.01 505.308 1330.36 505.942C1331.11 507.444 1334.37 506.794 1335.49 506.584Z" fill="#482D1F"/>
<path d="M1336.84 485.888C1338.46 478.342 1345.88 473.528 1353.44 475.134C1359 476.317 1363.09 480.653 1364.21 485.874L1364.27 486.36L1364.21 485.874C1364.25 486.031 1364.28 486.189 1364.31 486.347L1372.08 484.06C1372.87 483.826 1373.71 484.281 1373.94 485.076C1374.17 485.87 1373.72 486.704 1372.93 486.938L1364.8 489.331C1364.7 489.359 1364.61 489.376 1364.52 489.386C1364.49 490.164 1364.39 490.951 1364.22 491.739C1362.61 499.302 1355.18 504.13 1347.62 502.522C1341.17 501.153 1336.72 495.558 1336.53 489.256C1336.54 489.124 1336.55 488.997 1336.56 488.875L1333.15 488.622L1333.08 489.015C1331.14 496.122 1323.97 500.562 1316.67 499.011C1309.11 497.404 1304.28 489.969 1305.89 482.406C1307.49 474.843 1314.93 470.015 1322.49 471.623C1329.19 473.047 1333.74 479.04 1333.58 485.646L1336.84 485.888V485.888ZM1348.24 499.588C1354.18 500.851 1360.02 497.057 1361.29 491.115C1362.55 485.173 1358.76 479.331 1352.81 478.068C1346.87 476.805 1341.03 480.598 1339.77 486.541C1338.5 492.483 1342.3 498.324 1348.24 499.588ZM1317.29 496.077C1323.24 497.34 1329.08 493.546 1330.34 487.604C1331.6 481.662 1327.81 475.821 1321.87 474.557C1315.92 473.294 1310.08 477.088 1308.82 483.03C1307.56 488.972 1311.35 494.814 1317.29 496.077Z" fill="#482D1F"/>
<path d="M1209 1102.67L1209.4 1102.87C1211.5 1103.97 1214.2 1103.37 1215.2 1101.47L1332.3 886.368C1333.4 884.368 1332.5 881.868 1330.4 880.768L1330 880.568C1327.9 879.468 1325.2 880.068 1324.2 881.968L1295.2 935.168C1276.3 969.968 1257.4 1004.67 1238.4 1039.47L1207.1 1096.87C1206 1098.87 1206.9 1101.47 1209 1102.67Z" fill="#D8DEED"/>
<path d="M1496.76 877.067H1433.69C1395.49 877.067 1357.29 877.067 1319.18 877.067H1260.67C1258.61 877.067 1256.8 879.067 1256.8 881.467V881.967C1256.8 884.367 1258.52 886.367 1260.67 886.367H1496.93C1498.99 886.367 1500.8 884.367 1500.8 881.967V881.467C1500.8 879.067 1498.99 877.067 1496.76 877.067Z" fill="#D8DEED"/>
<path d="M1535.5 1096.87L1504.2 1039.47C1485.3 1004.67 1466.4 969.967 1447.4 935.167L1418.4 881.967C1417.4 880.067 1414.7 879.367 1412.6 880.567L1412.2 880.767C1410.1 881.867 1409.2 884.467 1410.3 886.367L1527.4 1101.47C1528.4 1103.37 1531.1 1104.07 1533.2 1102.87L1533.6 1102.67C1535.7 1101.47 1536.6 1098.87 1535.5 1096.87Z" fill="#D8DEED"/>
<path d="M1526.57 594.022L1517.07 670.822C1511.27 717.322 1505.57 763.822 1499.77 810.222L1490.97 881.422C1490.67 883.922 1492.37 886.422 1494.77 886.722L1495.27 886.822C1497.67 887.122 1499.87 885.322 1500.27 882.622L1535.97 595.022C1536.27 592.522 1534.57 590.022 1532.17 589.722L1531.67 589.622C1529.17 589.322 1526.87 591.322 1526.57 594.022Z" fill="#D8DEED"/>
<path d="M1482 730H709.001C705.135 730 702.001 733.134 702.001 737C702.001 740.866 705.135 744 709.001 744H1482C1485.87 744 1489 740.866 1489 737C1489 733.134 1485.87 730 1482 730Z" fill="#D8DEED"/>
<path d="M196.438 1122C193.838 1122 191.838 1120.27 191.938 1118.19V1116.81C191.938 1114.73 194.038 1113 196.438 1113H298.938C301.438 1113 303.438 1114.73 303.438 1116.81V1118.19C303.438 1120.27 301.338 1122 298.938 1122H196.438ZM424.864 1113H583.864C586.349 1113 588.364 1115.01 588.364 1117.5C588.364 1119.99 586.349 1122 583.864 1122H424.864C422.378 1122 420.364 1119.99 420.364 1117.5C420.364 1115.01 422.378 1113 424.864 1113Z" fill="#3ABF7C"/>
<path d="M353.386 772.594C350.736 828.31 346.206 909.497 339.796 1016.15C339.436 1022.14 334.718 1026.94 328.743 1027.4C297.14 1029.84 281.338 1031.06 281.338 1031.06C273.293 1030.9 265.149 1030.74 256.568 1030.18C253.144 1030.05 249.601 1029.7 246.058 1029.35C222.961 1024.56 206.834 1020.19 183.738 1015.4C179.232 1014.36 172.402 1004.91 176.759 989.325C181.115 973.742 194.506 883.869 205.279 817.898C204.368 807.246 204.462 796.615 205.97 786.08C207.645 773.98 236.894 571.445 240.311 551.554C242.985 514.299 261.159 498.042 282.085 491.163C287.681 489.323 291.911 482.798 300.365 479.987C308.01 477.444 324.561 475.875 350.019 475.279C358.273 473.409 378.631 474.051 392.727 482.182C398.311 485.403 405.685 492.515 414.668 509.461C423.651 526.407 476.092 687.753 477.192 717.579C486.792 745.054 494.692 770.794 499.292 786.524C503.492 800.823 503.492 812.263 503.892 815.634C514.992 904.19 559.592 983.758 538.792 1003.16C535.592 1006.13 518.492 1009.5 484.292 1016.34C482.092 1016.75 480.092 1017.16 480.092 1017.16C471.592 1018.79 463.592 1020.02 455.592 1021.14C455.592 1021.14 417.792 1028.5 374.892 1025.23C367.976 1024.68 360.808 940.468 353.386 772.594Z" fill="#A339FF"/>
<path opacity="0.176986" d="M392.727 481.829C398.311 485.05 405.685 492.162 414.668 509.108C423.651 526.054 476.092 687.4 477.192 717.225C486.792 744.701 494.692 770.441 499.292 786.171C503.492 800.47 503.492 811.91 503.892 815.281C514.992 903.837 559.592 983.405 538.792 1002.81C535.592 1005.77 518.492 1009.14 484.292 1015.99C482.092 1016.4 480.092 1016.8 480.092 1016.8C471.592 1018.44 463.592 1019.66 455.592 1020.79C455.592 1020.79 417.792 1028.14 374.892 1024.87C367.924 1024.32 360.7 938.835 353.218 768.414C354.955 731.402 355.824 706.16 355.824 692.688C358.894 668.734 361.855 644.68 364.925 620.726C367.629 566.317 368.167 529.413 366.54 510.014C366.351 507.767 365.14 496.096 362.906 475L392.727 481.829Z" fill="#444444"/>
<path d="M298.978 1113H197.55L228.038 1054.25L283.438 1060.95L298.978 1113ZM585.876 1113.44C585.287 1113.16 584.627 1113 583.929 1113H424.929C424.593 1113 424.265 1113.04 423.95 1113.11L434.714 1051.95L497.377 1050L515.377 1063.1C519.577 1067.1 523.977 1070.9 528.877 1074.1C540.577 1081.8 546.677 1081.7 564.477 1090.2C569.277 1092.4 573.977 1095 578.477 1097.8C580.677 1099.8 584.577 1103.8 585.877 1108.6C586.077 1109.4 586.077 1110.2 586.177 1110.9C586.2 1111.8 586.084 1112.65 585.876 1113.44Z" fill="#474961"/>
<path d="M274.6 562.055C274.6 562.055 304.9 626.655 289.7 629.755C289.7 629.755 280.6 624.855 274 609.255" fill="#482D1F"/>
<path d="M197.793 578.317L184.793 665.217C184.393 667.917 186.193 670.417 188.893 670.917L304.793 688.317C307.493 688.717 309.993 686.917 310.493 684.217L323.493 597.317C323.893 594.617 322.093 592.117 319.393 591.617L203.493 574.217C200.693 573.817 198.193 575.717 197.793 578.317Z" fill="#F2F6FB"/>
<path d="M310.98 608.235L301.08 671.935C300.58 674.635 302.48 677.135 305.18 677.635L314.48 679.135C317.18 679.635 319.68 677.735 320.18 675.035L330.08 611.335C330.58 608.635 328.68 606.135 325.98 605.635L316.68 604.135C313.98 603.635 311.48 605.535 310.98 608.235Z" fill="#3ABF7C"/>
<path d="M366.263 332.17C373.36 329.308 384.2 327.093 395.312 333.312C404.776 338.502 402.698 345.629 418.986 361.819C427.062 369.825 434.135 374.766 433.63 381.079C433.316 384.705 430.753 387.241 428.724 388.858C419.579 392.519 410.412 396.166 401.234 399.812L401.592 430.581L401.608 431.514L402.211 448.683L402.211 454.594C402.211 474.066 387.12 490.206 367.692 491.511L303.885 495.798C290.66 496.687 279.219 486.686 278.33 473.461C278.296 472.956 278.279 472.45 278.277 471.944L278.062 415.916C267.725 416.616 257.389 417.313 247.054 417.998C243.803 417.398 239.533 416.067 237.64 412.611C234.266 406.454 241.032 398.116 247.765 385.946C261.232 361.606 255.637 355.478 265.228 345.473C278.519 331.589 296.178 329.727 305.939 329.817C308.16 329.788 310.43 330.167 312.577 330.733L312.826 330.862C317.471 329.448 322.406 328.669 327.52 328.632L349.7 328.525C355.459 328.462 361.035 329.789 366.263 332.17Z" fill="#FF6804"/>
<path d="M288.544 1030.07L283.438 1060.95C283.438 1060.95 265.004 1058.72 228.138 1054.25C228.384 1043.33 228.569 1033.66 228.694 1025.24C234.049 1026.46 239.632 1027.69 245.694 1028.94C249.237 1029.29 252.781 1029.64 256.205 1029.77C264.786 1030.34 272.93 1030.49 280.975 1030.66L288.544 1030.07ZM494.892 1013.74L497.377 1050L434.714 1051.95C434.714 1051.95 432.261 1038.68 429.353 1024.15C445.089 1022.71 455.228 1020.73 455.228 1020.73C463.228 1019.61 471.228 1018.38 479.728 1016.75C479.728 1016.75 481.728 1016.34 483.928 1015.93C487.8 1015.16 491.453 1014.43 494.892 1013.74ZM332.18 311.298L327.383 293.801C327.02 292.758 323.13 291.293 320.948 289.569C317.069 286.414 316.192 281.068 316.923 275.732C318.018 270.616 322.532 265.986 327.383 265.601C329.202 265.457 330.948 265.846 332.694 266.647L332.815 266.72C333.421 267.084 334.148 267.109 334.755 267.061C336.429 266.747 337.618 265.316 337.401 263.618L333.828 237.713C333.513 236.04 334.606 234.634 336.279 234.319C339.942 233.715 343.435 232.845 346.904 231.464C347.389 231.343 347.777 231.247 348.166 231.15C351.634 230.182 370.482 225.586 383.135 237.89C384.274 239.152 385.389 240.317 386.334 241.627C388.685 244.854 390.162 248.712 390.668 252.811L392.718 270.954C392.863 272.773 392.91 274.616 392.86 276.484C391.997 299.476 384.613 316.57 376.244 318.553C371.927 319.424 367.464 319.712 363.099 319.151C362.509 319.02 362.903 319.145 356.373 317.73L356.288 327.991C367.177 330.089 371.593 334.119 371.593 334.119C371.176 336.755 370.204 338.627 368.998 340.015C361.582 348.653 339.224 344.302 313.297 330.477C318.93 329.155 324.085 328.24 328.791 327.647C329.922 322.208 331.077 317.315 332.18 311.298ZM401.947 456.083C401.974 455.509 401.987 454.933 401.987 454.353L401.987 448.443L401.384 431.273L401.368 430.34L401.007 399.3C410.432 395.556 419.846 391.811 429.238 388.051C429.756 387.638 430.31 387.165 430.852 386.628L456.102 419.962C462.72 414.465 493.657 390.97 512.997 376.332C539.637 352.503 591.045 307 591.045 307C597.56 311.744 592.921 326.504 585.144 342.443C588.434 344.609 591.965 348.856 595.736 355.185C599.445 361.408 598.176 369.392 592.721 374.159L562.125 400.894C531.322 437.597 478.019 491.413 462.593 496.795C445.942 502.603 424.341 485.058 401.947 456.083ZM248.76 417.468C271.403 415.965 294.052 414.408 316.698 412.88L275.072 588.528C275.05 588.529 275.027 588.531 275.005 588.532L293.493 665.265C293.932 667.086 293.049 668.967 291.368 669.792C285.609 672.622 278.186 673.984 269.1 673.881C253.12 673.698 242.1 667.588 242.1 667.498C229.867 640.376 222.918 619.345 221.253 604.404C221.026 602.371 221.007 600.125 221.195 597.667C221.13 597.644 221.065 597.621 221 597.598L248.76 417.468Z" fill="#BF865F"/>
<path opacity="0.176986" d="M365.092 332.776C371.991 329.669 383.291 326.585 395.311 333.313C404.775 338.502 402.697 345.63 418.985 361.819C427.061 369.825 433.698 374.475 433.698 380.808C433.698 384.355 431.428 386.617 429.238 388.052C419.844 391.813 410.422 395.578 401.007 399.228L400.339 379.145C400.409 367.055 396.97 356.143 390.021 346.41C384.65 338.887 376.341 334.342 365.092 332.776Z" fill="#444444"/>
<path opacity="0.2" d="M401.947 456.083C401.974 455.509 401.987 454.932 401.987 454.353L401.987 448.442L401.384 431.273L401.368 430.34L401.007 399.3C410.432 395.556 419.846 391.811 429.238 388.051C429.757 387.638 430.31 387.164 430.852 386.628L456.102 419.962C462.72 414.465 493.657 390.97 512.997 376.332C539.637 352.503 591.045 307 591.045 307C597.56 311.744 592.921 326.504 585.144 342.443C588.434 344.609 591.965 348.856 595.736 355.185C599.445 361.408 598.176 369.392 592.721 374.159L562.126 400.894C531.322 437.597 478.019 491.413 462.593 496.795C445.942 502.602 424.341 485.058 401.947 456.083Z" fill="#8C2A00"/>
<path d="M267.632 637.355C267.446 636.548 267.948 635.743 268.756 635.556C269.563 635.369 270.368 635.872 270.555 636.679C271.714 641.686 272.778 645.567 275.28 654.213C277.796 662.911 278.87 666.828 280.045 671.905C280.232 672.712 279.729 673.517 278.922 673.704C278.115 673.891 277.309 673.388 277.122 672.581C275.964 667.574 274.899 663.693 272.398 655.047C269.882 646.349 268.807 642.432 267.632 637.355ZM247.256 633.845C247.02 633.051 247.472 632.216 248.266 631.98C249.06 631.743 249.895 632.195 250.131 632.989C251.762 638.468 252.892 642.615 255.302 651.766C257.704 660.886 258.828 665.012 260.447 670.451C260.683 671.245 260.231 672.08 259.437 672.316C258.643 672.553 257.808 672.101 257.572 671.307C255.941 665.828 254.811 661.68 252.401 652.53C249.999 643.409 248.875 639.284 247.256 633.845ZM314.501 413.805C314.517 412.978 315.201 412.32 316.028 412.335C316.095 412.336 316.213 412.333 316.375 412.322C316.642 412.305 316.939 412.272 317.256 412.221C318.138 412.076 319.013 411.813 319.817 411.407C322.449 410.077 323.849 407.537 323.408 403.084C323.062 399.622 322.565 396.602 321.959 394.001C321.532 392.168 321.077 390.656 320.626 389.447C320.365 388.748 320.172 388.319 320.077 388.141C319.687 387.41 319.964 386.501 320.695 386.111C321.426 385.721 322.334 385.998 322.724 386.729C322.882 387.024 323.13 387.575 323.437 388.399C323.933 389.728 324.425 391.363 324.881 393.32C325.517 396.049 326.034 399.197 326.393 402.787C326.957 408.476 324.906 412.197 321.169 414.084C320.069 414.64 318.906 414.99 317.74 415.181C317.011 415.301 316.409 415.339 315.994 415.335L315.971 415.335C315.142 415.318 314.484 414.633 314.501 413.805Z" fill="#482D1F"/>
<path d="M296.413 278.488C279.341 290.385 260.208 289.874 250.49 280.856C243.097 273.94 241.721 262.636 241.528 261.036C239.574 244.93 252.82 239.772 253.936 239.288C253.936 239.288 270.267 225.013 297.562 249.332C297.647 249.409 297.733 249.486 297.819 249.564C299.438 246.751 301.729 244.424 304.308 242.497C311.539 237.19 317.845 238.092 333.345 234.948C336.498 234.368 341.375 233.001 347.149 231.356C347.634 231.235 348.022 231.138 348.41 231.041C351.879 230.073 370.483 225.586 383.135 237.89C383.112 238.197 372.294 276.055 343.532 280.65H343.532L338.536 271.89C337.082 269.779 335.119 268.104 332.864 266.914C331.118 266.113 329.372 265.724 327.553 265.868C322.702 266.253 318.188 270.883 317.093 275.999C316.095 281.092 317.935 286.405 322.008 289.512C324.575 291.626 327.714 292.79 331.07 292.792C331.606 300.78 332.251 311.878 332.251 311.878C332.251 311.878 330.596 311.878 329.852 311.878C329.114 311.878 304.563 304.574 296.413 278.488ZM377.539 269.589C375.646 270.266 372.444 271.065 369.68 270.724C364.902 270.163 369.051 266.964 373.223 266.336C375.188 265.949 376.813 266.678 377.904 267.333C378.679 267.964 378.485 269.25 377.539 269.589ZM396.286 266.204C394.442 267.076 391.434 268.238 388.499 268.042C383.624 267.918 387.362 264.307 391.558 263.363C393.717 262.928 395.269 263.366 396.457 263.997C397.306 264.507 397.208 265.768 396.286 266.204Z" fill="#482D1F"/>
<path d="M389.185 279.301C388.192 278.209 388.218 275.42 388.291 273.649C388.292 272.412 389.384 271.419 390.5 271.347C391.228 271.371 392.125 271.663 392.463 273.021C393.48 276.272 390.591 281.218 389.185 279.301ZM372.682 281.296C371.591 280.228 371.714 277.415 371.788 275.644C371.789 274.407 372.881 273.413 373.997 273.341C374.724 273.366 375.621 273.658 375.96 275.016C376.977 278.267 374.184 283.188 372.682 281.296Z" fill="#482D1F"/>
<path d="M388.167 287.071L387.257 276.433L387.525 270.557C387.55 270.005 387.123 269.538 386.572 269.512C386.02 269.487 385.552 269.914 385.527 270.466L385.257 276.408L385.259 276.539L386.174 287.235C386.177 287.273 386.107 287.348 385.927 287.367L385.823 287.383C384.777 287.604 383.508 287.716 382.019 287.716C381.467 287.716 381.019 288.164 381.019 288.716C381.019 289.269 381.467 289.716 382.019 289.716C383.617 289.716 385.007 289.595 386.19 289.35C387.376 289.2 388.259 288.231 388.167 287.071Z" fill="#482D1F"/>
<path d="M302.386 252.974C302.386 252.974 304.731 264.859 297.88 282.026L314.619 275.586L314.335 265.763L302.386 252.974Z" fill="#482D1F"/>
<path d="M356.769 317.74L348.233 315.746L356.105 332.85L356.769 317.74Z" fill="#482D1F"/>
<path d="M381.415 297.758C380.688 297.733 378.893 297.563 378.409 296.447C378.36 296.253 378.191 295.986 378.239 295.767C378.41 295.21 381.635 294.921 381.635 294.921C385.686 294.632 386.729 294.269 387.068 294.803C387.238 295.07 387.238 295.482 386.558 296.476C385.854 298.198 382.555 297.783 381.415 297.758Z" fill="#482D1F"/>
</svg>
