<svg width="1200" height="324" viewBox="0 0 1200 324" fill="none" xmlns="http://www.w3.org/2000/svg">
<path fill-rule="evenodd" clip-rule="evenodd" d="M0 144L18 162C36 180 73 216 109 240C145 264 182 276 218 252C255 228 291 168 327 114C364 60 400 12 436 30C473 48 509 132 545 138C582 144 618 72 655 36C691 0 727 0 764 42C800 84 836 168 873 204C909 240 945 228 982 192C1018 156 1055 96 1091 60C1127 24 1164 12 1182 6L1200 0V324H1182C1164 324 1127 324 1091 324C1055 324 1018 324 982 324C945 324 909 324 873 324C836 324 800 324 764 324C727 324 691 324 655 324C618 324 582 324 545 324C509 324 473 324 436 324C400 324 364 324 327 324C291 324 255 324 218 324C182 324 145 324 109 324C73 324 36 324 18 324H0V144Z" fill="#252331"/>
</svg>
